<svg xmlns="http://www.w3.org/2000/svg" version="1.1" xmlns:xlink="http://www.w3.org/1999/xlink" xmlns:svgjs="http://svgjs.dev/svgjs" width="2000" height="2000" viewBox="0 0 2000 2000"><g transform="matrix(1,0,0,1,-0.28443113772425477,-0.28443113772459583)"><svg viewBox="0 0 334 334" data-background-color="#ffffff" preserveAspectRatio="xMidYMid meet" height="2000" width="2000" xmlns="http://www.w3.org/2000/svg" xmlns:xlink="http://www.w3.org/1999/xlink"><g id="tight-bounds" transform="matrix(1,0,0,1,0.04749999999998522,0.04750000000001364)"><svg viewBox="0 0 333.90454557049503 333.90454557049503" height="333.90454557049503" width="333.90454557049503"><g><svg></svg></g><g><svg viewBox="0 0 333.90454557049503 333.90454557049503" height="333.90454557049503" width="333.90454557049503"><g><path d="M0 166.952c0-92.205 74.747-166.952 166.952-166.952 92.205 0 166.952 74.747 166.953 166.952 0 92.205-74.747 166.952-166.953 166.953-92.205 0-166.952-74.747-166.952-166.953zM166.952 327.167c88.484 0 160.215-71.731 160.215-160.215 0-88.484-71.731-160.215-160.215-160.215-88.484 0-160.215 71.731-160.215 160.215 0 88.484 71.731 160.215 160.215 160.215z" data-fill-palette-color="tertiary" fill="#ed2647" stroke="transparent"></path><ellipse rx="160.27418187383762" ry="160.27418187383762" cx="166.95227278524752" cy="166.95227278524752" fill="#ed2647" stroke="transparent" stroke-width="0" fill-opacity="1" data-fill-palette-color="tertiary"></ellipse></g><g transform="matrix(1,0,0,1,72.72116200016073,71.17305217166896)"><svg viewBox="0 0 188.46222157017357 191.55844122715712" height="191.55844122715712" width="188.46222157017357"><g><svg viewBox="0 0 188.46222157017357 191.55844122715712" height="191.55844122715712" width="188.46222157017357"><g><svg viewBox="0 0 213.1584412271571 216.66039164608367" height="191.55844122715712" width="188.46222157017357"><g transform="matrix(1,0,0,1,0,132.16371468155305)"><svg viewBox="0 0 213.1584412271571 84.49667696453064" height="84.49667696453064" width="213.1584412271571"><g id="textblocktransform"><svg viewBox="0 0 213.1584412271571 84.49667696453064" height="84.49667696453064" width="213.1584412271571" id="textblock"><g><svg viewBox="0 0 213.1584412271571 84.49667696453064" height="84.49667696453064" width="213.1584412271571"><g transform="matrix(1,0,0,1,0,0)"><svg width="213.1584412271571" viewBox="0.949999988079071 -38.04999923706055 133.44000244140625 52.900001525878906" height="84.49667696453064" data-palette-color="#ffffff"><path d="M22.78-12.13Q25.85-12.15 27.68-10.5 29.5-8.85 29.5-6.35 29.5-3.85 27.6-1.93 25.7 0 21.85 0L21.85 0 1.45 0Q0.95-1.25 0.95-2.65 0.95-4.05 2-5.45L2-5.45 19.35-32.1 17.65-32.1Q16.3-29.45 13.8-27.7 11.3-25.95 8.22-25.93 5.15-25.9 3.33-27.55 1.5-29.2 1.5-31.7 1.5-34.2 3.4-36.13 5.3-38.05 9.15-38.05L9.15-38.05 29.05-38.05Q29.3-37.2 29.3-36.35L29.3-36.35Q29.3-34.8 28.35-33.5L28.35-33.5 10.5-5.95 13.35-5.95Q14.7-8.6 17.2-10.35 19.7-12.1 22.78-12.13ZM14.15-32.1L9.1-32.1Q5.85-32.1 5.85-30.55 5.85-29 8.9-29 11.95-29 14.15-32.1L14.15-32.1ZM16.85-5.95L21.9-5.95Q25.15-5.95 25.15-7.5 25.15-9.05 22.1-9.05 19.05-9.05 16.85-5.95L16.85-5.95ZM37.7-11.2Q40.8-11.85 42.32-13.7 43.85-15.55 43.85-17.28 43.85-19 42.92-19.63 42-20.25 40.9-20.25L40.9-20.25Q38.55-20.25 36.77-17.63 35-15 35-11.38 35-7.75 36.72-5.98 38.45-4.2 41-4.2L41-4.2Q44.75-4.2 48.2-6.8 51.65-9.4 53.8-13.6L53.8-13.6Q54.9-12.55 55.8-11L55.8-11Q54.15-7.25 49.95-3.65L49.95-3.65Q47.85-1.9 44.97-0.8 42.1 0.3 39.05 0.3L39.05 0.3Q34.05 0.3 31.15-2.75L31.15-2.75Q28.05-6.05 28.05-11.2 28.05-16.35 31.92-20.2 35.8-24.05 41.2-24.05L41.2-24.05Q45.05-24.05 47.45-22.38 49.85-20.7 49.9-17.85L49.9-17.85Q49.9-14 46.82-11.6 43.75-9.2 38.4-8.25L38.4-8.25 37.7-11.2ZM60.3 14.85L60.3 14.85Q57.45 14.85 55.4 13.13 53.34 11.4 53.34 8.1L53.34 8.1Q53.34 4.05 57.45 0.2L57.45 0.2Q54.55-0.05 52.8-1.7 51.05-3.35 51.05-6.35L51.05-6.35Q51.05-7.75 51.4-10.55 51.75-13.35 52.15-16.6 52.55-19.85 53-23.5L53-23.5Q54.55-24.05 55.84-24.05 57.15-24.05 57.8-23.95 58.45-23.85 59.05-23.2 59.65-22.55 59.65-21.35L59.65-21.35 58-8.6Q57.9-7.8 57.9-7.5L57.9-7.5Q57.9-4.55 60.59-4.55L60.59-4.55Q63.05-4.55 64.59-6.85L64.59-6.85Q64.75-8 65.34-13.48 65.95-18.95 66.34-22L66.34-22Q66.8-22.95 68.22-23.5 69.65-24.05 70.55-24.05L70.55-24.05Q72.15-24.05 73.45-23.65L73.45-23.65 71.09-5.2Q76.95-4.15 78.09 2.85L78.09 2.85Q77.9 3.8 76.2 5.85L76.2 5.85Q75.2-0.4 70.7-1.75L70.7-1.75 69.9 4.5Q69.34 9 67.05 11.93 64.75 14.85 60.3 14.85ZM57.25 7.15Q57.25 8.8 58.05 9.6 58.84 10.4 60.17 10.4 61.5 10.4 62.2 9.3 62.9 8.2 63.3 4.9L63.3 4.9 63.95-0.6Q57.4 2.8 57.25 7.15L57.25 7.15ZM98.24 0.25L98.24 0.25Q93.64 0.25 92.14-2.95L92.14-2.95Q89.54 0.3 85.47 0.3 81.39 0.3 78.62-2.45 75.84-5.2 75.84-9.7L75.84-9.7Q75.84-16.25 79.69-20.15 83.54-24.05 89.44-24.05L89.44-24.05Q89.59-24.05 89.74-24.05L89.74-24.05Q92.24-24.05 94.34-23.2L94.34-23.2Q95.69-24.05 97.62-24.05 99.54-24.05 100.39-23.55L100.39-23.55Q99.94-19.85 99.44-16.28 98.94-12.7 98.74-11.2L98.74-11.2Q98.29-7.8 98.29-6.3L98.29-6.3Q98.29-4.3 99.89-4.3L99.89-4.3Q101.14-4.3 102.54-5.98 103.94-7.65 104.99-11.25L104.99-11.25Q106.44-9.95 106.99-8.35L106.99-8.35Q105.54-3.6 103.09-1.68 100.64 0.25 98.24 0.25ZM90.19-20.15L90.19-20.15Q86.99-20.15 85.12-17.73 83.24-15.3 82.89-10.5L82.89-10.5Q82.84-10.05 82.84-9.65L82.84-9.65Q82.84-7.2 84.02-5.75 85.19-4.3 87.04-4.3L87.04-4.3Q90.19-4.3 91.79-8.75L91.79-8.75 92.99-19.55Q91.54-20.15 90.19-20.15ZM122.49-36.05Q122.84-36.9 124.07-37.48 125.29-38.05 127.02-38.05 128.74-38.05 129.59-37.55L129.59-37.55Q129.09-33.65 127.99-25.3L127.99-25.3Q125.69-7.85 125.69-6.08 125.69-4.3 127.19-4.3L127.19-4.3Q128.49-4.3 129.89-5.93 131.29-7.55 132.44-11.25L132.44-11.25Q133.84-9.9 134.39-8.3L134.39-8.3Q132.59-2.35 128.74-0.6L128.74-0.6Q126.99 0.25 125.44 0.25L125.44 0.25Q120.99 0.25 119.49-2.95L119.49-2.95Q116.89 0.3 112.84 0.3 108.79 0.3 106.02-2.45 103.24-5.2 103.24-9.7L103.24-9.7Q103.24-16.25 107.09-20.15 110.94-24.05 116.84-24.05L116.84-24.05Q116.99-24.05 117.14-24.05L117.14-24.05Q119.19-24.05 120.99-23.45L120.99-23.45 122.49-36.05ZM117.59-20.15L117.59-20.15Q114.39-20.15 112.52-17.73 110.64-15.3 110.29-10.5L110.29-10.5Q110.24-10.05 110.24-9.65L110.24-9.65Q110.24-7.2 111.42-5.75 112.59-4.3 114.44-4.3L114.44-4.3Q117.59-4.3 119.19-8.75L119.19-8.75 120.49-19.5Q118.84-20.15 117.59-20.15Z" opacity="1" transform="matrix(1,0,0,1,0,0)" fill="#ffffff" class="wordmark-text-0" data-fill-palette-color="quaternary" id="text-0"></path></svg></g></svg></g></svg></g></svg></g><g transform="matrix(1,0,0,1,40.713262274387006,0)"><svg viewBox="0 0 131.7319166783831 112.2160771704745" height="112.2160771704745" width="131.7319166783831"><g><svg xmlns:x="http://ns.adobe.com/Extensibility/1.0/" xmlns:i="http://ns.adobe.com/AdobeIllustrator/10.0/" xmlns:graph="http://ns.adobe.com/Graphs/1.0/" xmlns="http://www.w3.org/2000/svg" xmlns:xlink="http://www.w3.org/1999/xlink" version="1.1" x="0" y="0" viewBox="5 9 54 46" enable-background="new 0 0 64 64" xml:space="preserve" height="112.2160771704745" width="131.7319166783831" class="icon-icon-0" data-fill-palette-color="quaternary" id="icon-0"><g fill="#ffffff" data-fill-palette-color="quaternary"><path d="M58 9H6c-0.552 0-1 0.448-1 1v36c0 0.553 0.448 1 1 1h25v6h-9c-0.552 0-1 0.447-1 1s0.448 1 1 1h20c0.553 0 1-0.447 1-1s-0.447-1-1-1h-9v-6h25c0.553 0 1-0.447 1-1V10C59 9.448 58.553 9 58 9zM29.707 29.293c0.391 0.391 0.391 1.023 0 1.414C29.512 30.902 29.256 31 29 31s-0.512-0.098-0.707-0.293l-2-2c-0.391-0.391-0.391-1.023 0-1.414l2-2c0.391-0.391 1.023-0.391 1.414 0s0.391 1.023 0 1.414L28.414 28 29.707 29.293zM33.97 24.243l-2 8C31.856 32.697 31.449 33 31.001 33c-0.081 0-0.162-0.009-0.244-0.03-0.536-0.134-0.861-0.677-0.728-1.213l2-8c0.134-0.535 0.679-0.862 1.212-0.728C33.778 23.164 34.104 23.707 33.97 24.243zM37.707 28.707l-2 2C35.512 30.902 35.256 31 35 31s-0.512-0.098-0.707-0.293c-0.391-0.391-0.391-1.023 0-1.414L35.586 28l-1.293-1.293c-0.391-0.391-0.391-1.023 0-1.414s1.023-0.391 1.414 0l2 2C38.098 27.684 38.098 28.316 37.707 28.707z" fill="#ffffff" data-fill-palette-color="quaternary"></path></g></svg></g></svg></g><g></g></svg></g></svg></g></svg></g></svg></g><defs></defs></svg><rect width="333.90454557049503" height="333.90454557049503" fill="none" stroke="none" visibility="hidden"></rect></g></svg></g></svg>